<svg width="414" height="1024" viewBox="0 0 414 1024" fill="none" xmlns="http://www.w3.org/2000/svg">
<path d="M123.122 1005.65C136.255 1017.59 163.762 1024 178.971 1024H206.529C206.529 1024 218.878 1024 234.084 1024C249.316 1024 276.826 1017.59 289.933 1005.65C330.602 968.594 401.925 859.828 412.347 549.643C423.819 207.622 291.764 57.8406 233.4 8.68303C219.657 -2.89434 193.37 -2.89434 179.627 8.68303C121.289 57.8406 -10.792 207.622 0.705096 549.643C11.1326 859.828 82.4301 968.594 123.122 1005.65Z" fill="white"/>
<path d="M178.971 1023C171.481 1023 160.899 1021.42 150.553 1018.34C140.191 1015.27 130.199 1010.73 123.795 1004.91C83.399 968.123 12.1285 859.691 1.70453 549.609C-9.78199 207.902 122.162 58.4121 180.271 9.44774C186.916 3.85038 196.672 1 206.513 1C216.355 1 226.111 3.85041 232.756 9.44783L233.4 8.68303L232.756 9.44788C290.89 58.4121 422.809 207.902 411.348 549.609C400.929 859.691 329.633 968.123 289.26 1004.91C282.869 1010.73 272.883 1015.27 262.521 1018.34C252.174 1021.42 241.586 1023 234.084 1023H233.995H233.906H233.817H233.729H233.64H233.551H233.462H233.374H233.285H233.197H233.108H233.02H232.932H232.844H232.756H232.668H232.58H232.492H232.404H232.316H232.228H232.141H232.053H231.966H231.879H231.791H231.704H231.617H231.53H231.443H231.356H231.269H231.182H231.096H231.009H230.923H230.836H230.75H230.664H230.577H230.491H230.405H230.319H230.233H230.148H230.062H229.976H229.891H229.805H229.72H229.635H229.55H229.465H229.38H229.295H229.21H229.125H229.041H228.956H228.872H228.787H228.703H228.619H228.535H228.451H228.367H228.283H228.199H228.116H228.032H227.949H227.865H227.782H227.699H227.616H227.533H227.45H227.367H227.285H227.202H227.12H227.037H226.955H226.873H226.791H226.709H226.627H226.545H226.464H226.382H226.301H226.219H226.138H226.057H225.976H225.895H225.814H225.733H225.653H225.572H225.492H225.412H225.331H225.251H225.171H225.092H225.012H224.932H224.853H224.773H224.694H224.615H224.536H224.457H224.378H224.299H224.221H224.142H224.064H223.986H223.908H223.829H223.752H223.674H223.596H223.519H223.441H223.364H223.287H223.21H223.133H223.056H222.979H222.902H222.826H222.75H222.673H222.597H222.521H222.446H222.37H222.294H222.219H222.143H222.068H221.993H221.918H221.843H221.769H221.694H221.62H221.545H221.471H221.397H221.323H221.249H221.176H221.102H221.029H220.955H220.882H220.809H220.736H220.664H220.591H220.519H220.446H220.374H220.302H220.23H220.158H220.087H220.015H219.944H219.872H219.801H219.73H219.66H219.589H219.518H219.448H219.378H219.308H219.238H219.168H219.098H219.029H218.959H218.89H218.821H218.752H218.683H218.615H218.546H218.478H218.41H218.342H218.274H218.206H218.138H218.071H218.004H217.936H217.869H217.802H217.736H217.669H217.603H217.537H217.471H217.405H217.339H217.273H217.208H217.142H217.077H217.012H216.947H216.883H216.818H216.754H216.69H216.626H216.562H216.498H216.434H216.371H216.308H216.245H216.182H216.119H216.056H215.994H215.932H215.87H215.808H215.746H215.684H215.623H215.562H215.501H215.44H215.379H215.318H215.258H215.198H215.137H215.078H215.018H214.958H214.899H214.84H214.781H214.722H214.663H214.604H214.546H214.488H214.43H214.372H214.314H214.257H214.199H214.142H214.085H214.029H213.972H213.916H213.859H213.803H213.747H213.692H213.636H213.581H213.526H213.471H213.416H213.361H213.307H213.253H213.198H213.145H213.091H213.037H212.984H212.931H212.878H212.825H212.773H212.72H212.668H212.616H212.564H212.513H212.461H212.41H212.359H212.308H212.257H212.207H212.157H212.106H212.057H212.007H211.957H211.908H211.859H211.81H211.761H211.713H211.664H211.616H211.568H211.52H211.473H211.426H211.378H211.331H211.285H211.238H211.192H211.146H211.1H211.054H211.008H210.963H210.918H210.873H210.828H210.784H210.74H210.695H210.652H210.608H210.564H210.521H210.478H210.435H210.392H210.35H210.308H210.266H210.224H210.182H210.141H210.1H210.059H210.018H209.978H209.937H209.897H209.857H209.817H209.778H209.739H209.7H209.661H209.622H209.584H209.546H209.508H209.47H209.433H209.395H209.358H209.321H209.285H209.248H209.212H209.176H209.14H209.105H209.07H209.034H209H208.965H208.931H208.896H208.862H208.829H208.795H208.762H208.729H208.696H208.663H208.631H208.599H208.567H208.535H208.504H208.473H208.442H208.411H208.38H208.35H208.32H208.29H208.261H208.231H208.202H208.173H208.145H208.116H208.088H208.06H208.033H208.005H207.978H207.951H207.924H207.898H207.871H207.845H207.82H207.794H207.769H207.744H207.719H207.694H207.67H207.646H207.622H207.598H207.575H207.552H207.529H207.507H207.484H207.462H207.44H207.419H207.397H207.376H207.355H207.334H207.314H207.294H207.274H207.254H207.235H207.216H207.197H207.178H207.16H207.142H207.124H207.107H207.089H207.072H207.055H207.039H207.022H207.006H206.99H206.975H206.96H206.945H206.93H206.915H206.901H206.887H206.873H206.86H206.847H206.834H206.821H206.809H206.796H206.785H206.773H206.762H206.75H206.74H206.729H206.719H206.709H206.699H206.689H206.68H206.671H206.663H206.654H206.646H206.638H206.63H206.623H206.616H206.609H206.603H206.596H206.59H206.585H206.579H206.574H206.569H206.565H206.56H206.556H206.553H206.549H206.546H206.543H206.54H206.538H206.536H206.534H206.532H206.531H206.53H206.529C206.529 1023 206.529 1023 206.529 1024V1023H178.971Z" stroke="black" stroke-opacity="0.9" stroke-width="2"/>
</svg>
