<?xml version="1.0" standalone="no"?><svg xmlns="http://www.w3.org/2000/svg" viewBox="0 0 1440 320"><path fill="#0099ff" fill-opacity="1" d="M0,128L40,128C80,128,160,128,240,106.7C320,85,400,43,480,64C560,85,640,171,720,186.7C800,203,880,149,960,154.7C1040,160,1120,224,1200,218.7C1280,213,1360,139,1400,101.3L1440,64L1440,320L1400,320C1360,320,1280,320,1200,320C1120,320,1040,320,960,320C880,320,800,320,720,320C640,320,560,320,480,320C400,320,320,320,240,320C160,320,80,320,40,320L0,320Z"></path></svg>